<?xml version="1.0" standalone="no"?>
<!DOCTYPE svg PUBLIC "-//W3C//DTD SVG 20010904//EN"
 "http://www.w3.org/TR/2001/REC-SVG-20010904/DTD/svg10.dtd">
<svg version="1.0" xmlns="http://www.w3.org/2000/svg"
 width="512.000000pt" height="512.000000pt" viewBox="0 0 512.000000 512.000000"
 preserveAspectRatio="xMidYMid meet">
<metadata>
Created by potrace 1.14, written by Peter Selinger 2001-2017
</metadata>
<g transform="translate(0.000000,512.000000) scale(0.100000,-0.100000)"
fill="#000000" stroke="none">
<path d="M0 2560 l0 -2560 2560 0 2560 0 0 2560 0 2560 -2560 0 -2560 0 0
-2560z m426 542 c21 -13 37 -100 81 -427 14 -110 28 -223 30 -252 6 -63 28
-90 39 -46 4 15 15 44 26 63 10 19 18 42 18 50 0 9 4 20 8 26 8 9 26 54 73
182 12 31 28 71 35 87 8 17 30 73 49 125 68 183 83 200 174 200 67 0 89 -26
96 -111 4 -35 10 -80 16 -99 9 -34 23 -122 54 -355 15 -112 37 -181 55 -170 6
3 10 11 10 18 0 11 28 86 56 154 8 17 14 34 14 38 0 4 6 21 14 38 7 18 23 59
35 92 12 33 28 73 36 88 8 16 15 36 15 45 1 9 9 35 20 57 11 22 19 47 20 56 0
8 7 24 15 35 8 10 15 27 15 36 0 9 12 30 26 47 25 30 27 31 118 31 55 0 97 -5
103 -11 8 -8 5 -26 -12 -68 -12 -31 -33 -81 -45 -111 -11 -30 -28 -71 -37 -90
-9 -19 -22 -51 -30 -70 -8 -19 -21 -48 -29 -65 -7 -16 -20 -48 -27 -70 -21
-61 -96 -247 -112 -278 -8 -16 -15 -33 -15 -38 0 -9 -18 -54 -55 -134 -7 -16
-26 -60 -40 -96 -32 -79 -48 -89 -140 -89 -80 0 -101 17 -109 87 -4 26 -13 82
-21 123 -8 42 -15 91 -15 110 0 19 -5 52 -11 73 -6 21 -17 84 -24 140 -15 110
-40 235 -48 243 -3 3 -10 -12 -17 -33 -7 -21 -16 -42 -21 -47 -5 -6 -9 -16 -9
-24 0 -8 -9 -33 -19 -56 -10 -23 -27 -61 -37 -86 -10 -25 -26 -64 -36 -87 -10
-23 -18 -48 -18 -56 0 -8 -7 -20 -15 -27 -8 -7 -15 -17 -15 -24 0 -6 -15 -49
-34 -96 -19 -47 -45 -114 -59 -149 -14 -35 -33 -69 -44 -75 -20 -12 -177 -15
-189 -4 -7 8 -37 173 -54 298 -5 41 -14 95 -19 120 -14 62 -40 221 -51 305 -9
67 -42 261 -56 334 -5 23 -2 36 7 42 17 11 189 12 205 1z m1603 -1 c11 -7 11
-18 2 -57 -10 -49 -35 -250 -51 -419 -5 -49 -13 -124 -19 -165 -5 -41 -15
-115 -21 -165 -30 -242 -36 -285 -42 -290 -11 -12 -179 -15 -199 -4 -18 9 -20
17 -14 61 4 27 13 104 21 171 8 67 23 192 33 277 11 85 26 211 34 280 17 143
37 289 43 308 4 14 190 17 213 3z m751 -16 c70 -25 160 -109 160 -147 0 -15 5
-30 10 -33 15 -9 12 -133 -4 -185 -27 -89 -101 -178 -188 -224 l-36 -20 24
-31 c13 -18 24 -35 24 -38 0 -3 23 -54 50 -112 28 -58 50 -109 50 -112 0 -3
16 -39 35 -79 29 -59 34 -78 25 -94 -9 -18 -20 -19 -105 -17 -114 3 -137 16
-173 102 -138 339 -130 324 -170 331 -19 4 -47 3 -61 -2 -24 -9 -26 -15 -33
-94 -13 -161 -35 -311 -47 -323 -18 -18 -172 -22 -193 -5 -16 12 -16 24 -2
173 8 88 19 169 24 180 4 11 14 83 20 160 7 76 17 153 21 170 5 16 9 55 9 85
0 30 7 90 15 133 8 43 15 101 15 127 0 82 -1 82 254 78 191 -3 229 -6 276 -23z
m1067 14 c7 -7 8 -23 2 -47 -5 -20 -9 -51 -9 -69 0 -22 -6 -36 -19 -43 -12 -6
-100 -10 -216 -10 -226 0 -208 10 -219 -115 -4 -39 -9 -89 -12 -111 -8 -69 3
-74 171 -74 94 0 145 -4 147 -11 8 -25 -9 -131 -22 -139 -8 -6 -81 -10 -162
-10 -130 0 -148 -2 -156 -17 -15 -29 -44 -223 -38 -249 l6 -24 200 0 c185 0
200 -1 209 -19 7 -12 7 -30 1 -52 -6 -19 -10 -48 -10 -66 0 -17 -4 -34 -9 -38
-6 -3 -145 -8 -311 -11 -226 -4 -305 -3 -316 6 -16 14 -18 100 -3 195 18 113
50 370 58 465 5 52 13 115 19 140 5 25 13 92 17 150 5 80 12 111 27 132 l19
28 308 0 c206 0 311 -4 318 -11z m718 -6 c11 -7 46 -24 77 -38 98 -45 184
-155 222 -287 18 -64 21 -211 5 -273 -6 -22 -14 -56 -18 -75 -31 -131 -169
-297 -303 -363 -104 -51 -161 -59 -423 -61 l-230 -1 -3 55 c-2 31 2 89 8 130
6 41 17 136 25 210 8 74 19 149 25 166 5 17 10 65 10 108 0 42 4 85 9 94 5 10
15 80 22 157 9 109 16 146 32 168 l19 28 252 -3 c174 -2 257 -7 271 -15z"/>
<path d="M2466 2928 c-4 -14 -23 -150 -36 -253 -4 -33 -5 -66 -2 -72 3 -9 28
-13 81 -13 147 0 219 63 223 194 2 76 -14 106 -72 137 -42 23 -188 27 -194 7z"/>
<path d="M4220 2906 c-5 -13 -14 -77 -20 -142 -6 -66 -15 -135 -19 -154 -5
-19 -12 -69 -15 -110 -4 -41 -14 -123 -23 -181 -9 -59 -13 -114 -9 -124 6 -16
19 -17 139 -13 110 4 139 9 172 27 55 29 119 94 143 144 40 85 46 113 50 242
4 148 -7 192 -66 257 -55 61 -106 78 -234 78 -105 0 -109 -1 -118 -24z"/>
</g>
</svg>
